<svg width="60" height="60" fill="none" xmlns="http://www.w3.org/2000/svg"><rect width="60" height="60" rx="30" fill="#FAC663"/><path d="M31.094 30.736c2.16 0 3.926 2.27 3.926 2.838 0 .567-1.767 2.459-3.926 2.459-2.16 0-3.73-2.46-3.73-2.46s1.57-2.837 3.73-2.837z" fill="#FFFDFB"/><path d="M25.008 31.304l2.356 2.27m0 0l-2.356 2.27m2.356-2.27s1.57 2.459 3.73 2.459 3.926-1.892 3.926-2.46c0-.567-1.767-2.837-3.926-2.837-2.16 0-3.73 2.838-3.73 2.838z" stroke="#FFFDFB" stroke-width="2" stroke-linecap="round" stroke-linejoin="round"/><path d="M18.866 25.13h.191l.313-.575c.226-.414.631-.863.982-1.197a6.21 6.21 0 01.51-.44c.076-.058.152-.111.224-.154a.81.81 0 01.311-.116h0a.513.513 0 00.444-.36c.163-.588.718-.99 1.205-1.219.503-.236 1.122-.375 1.616-.295h0a.539.539 0 00.543-.234h0c.279-.443.76-.733 1.238-.869.48-.136 1.043-.143 1.521.083h0c.2.094.44.059.598-.081h0c.394-.347.938-.493 1.437-.494.5 0 1.043.146 1.439.494h0c.159.14.397.175.598.08l-13.17 5.377zm0 0l.052-.223c.405-1.753 2.011-2.286 2.204-2.348l.196-.062.095-.184c.869-1.677 2.67-1.765 2.875-1.772l.203-.007.14-.146c1.064-1.104 2.509-1.118 3.286-.926l.195.048.174-.1c1.348-.773 2.74-.393 3.428 0l.174.1.195-.048c.777-.192 2.222-.178 3.285.926l.14.146.203.007c.156.005 1.207.056 2.09.79M18.866 25.13l18.935-3.8m0 0a3.166 3.166 0 00-.446-.256c-.502-.238-1.122-.382-1.624-.3a.54.54 0 01-.544-.234h0c-.16-.254-.402-.442-.648-.577a3.155 3.155 0 00-.819-.3c-.544-.123-1.203-.136-1.684.09l5.765 1.578zm-14.997 1.225h0a1.51 1.51 0 01-1.22 1.077 1.636 1.636 0 00-.117.082 5.198 5.198 0 00-.425.368c-.072.069-.144.14-.214.212h18.448a9.475 9.475 0 00-.221-.294 5.818 5.818 0 00-.327-.384 1.507 1.507 0 01-1.14-1.06c-.041-.15-.252-.384-.662-.579-.393-.186-.801-.254-1.034-.216h0a1.539 1.539 0 01-1.552-.689.768.768 0 00-.282-.232 2.162 2.162 0 00-.557-.202c-.444-.1-.845-.071-1.039.02h0a1.555 1.555 0 01-1.685-.235c-.164-.144-.449-.244-.777-.244-.33 0-.613.1-.777.244a1.555 1.555 0 01-1.685.235l-4.733 1.897zm0 0c.044-.155.257-.388.667-.58m-.666.58l.666-.58m0 0c.394-.185.802-.251 1.03-.214m-1.03.214l1.03-.214m0 0a1.539 1.539 0 001.551-.689m-1.551.69l.08-.494 1.471-.196m0 0c.112-.178.35-.35.665-.44m-.665.44l.665-.44m0 0c.312-.088.615-.07.82.026l-.82-.025zm18.057 5.081h0l2.194 14.774a.452.452 0 01-.018.205l-.01-.064-2.293-15.074-.017-.114c.077.075.129.17.144.273zM13.06 40.628l-.01.064a.45.45 0 01-.017-.204h0l2.194-14.774h0a.477.477 0 01.144-.274l-.017.114-2.294 15.074zM41.133 25.13h-.19l-.314-.575a8.973 8.973 0 00-1.145-1.595 2.153 2.153 0 00-.15-.148.887.887 0 00-.093-.071l-.002-.002a.56.56 0 00-.243-.09h0a.513.513 0 01-.444-.361h0a1.343 1.343 0 00-.03-.092c.022.038.044.077.064.117l.095.183.197.063c.19.06 1.797.591 2.204 2.348l.051.223zm-19.516-1.517l-.01.004a.05.05 0 01.01-.004z" fill="#FFFDFB" stroke="#FFFDFB"/></svg>