<svg width="71" height="63" fill="none" xmlns="http://www.w3.org/2000/svg"><path d="M58.536 13.871C43.472 15.15 32.761-3.554 44.44-11.432c5.037-3.397 12.031-2.668 17.342.714 12.263 7.811 9.69 23.493-3.246 24.59zM45.925 19.167c12.918-8.714 32.053 9.936 22.29 21.71-4.448 5.363-13.55 5.832-20.606.227-7.912-6.28-8.947-17.038-1.684-21.937z" fill="#FAC663" fill-opacity=".15"/><path d="M15.426-16.433c-1.449 1.69-4.41 4.148-7.711 6.44C4.228-7.565.363-5.322-2.483-4.352-10.178-1.746-15.925 8.38-7.722 15.825c7.585 6.882 13.65 2.108 20.664 8.748 7.083 6.714 15.688 6.456 21.235 2.281 5.133-3.864 7.644-11.085 3.89-19.231-4.001-8.68 2.715-12.52-1.31-21.799-4.354-10.053-16.15-8.311-21.331-2.257zM23.188 34.502c3.654-2.465 8.27-2.525 12.274-.554 11.906 5.864 12.698 24.564.985 28.345-14.812 4.788-26.17-19.082-13.259-27.791z" fill="#FAC663" fill-opacity=".15"/><path d="M7.06 24.113C18.27 31.15 17.067 49.796 4.962 52.349c-14.58 3.077-23.694-19.924-11.257-28.313 3.991-2.692 9.093-2.598 13.355.077z" fill="#FAC663" fill-opacity=".15"/></svg>