<svg width="85" height="89" fill="none" xmlns="http://www.w3.org/2000/svg"><path d="M26.394 19.341c6.47 13.715-7.962 30.417-19.66 22.226-5.046-3.533-6.767-10.37-5.328-16.562C4.729 10.702 20.84 7.565 26.394 19.34zM35.911 29.325c-12.94-9.06-1.484-33.667 13.33-28.658 6.749 2.282 10.363 10.675 7.374 19.298-3.348 9.667-13.429 14.454-20.704 9.36z" fill="#FAC663" fill-opacity=".15"/><path d="M11.952 70.626c2.143.763 5.556 2.678 8.927 4.97 3.564 2.419 7.083 5.258 9.011 7.591 5.202 6.313 17.023 8.129 21.4-2.225 4.046-9.573-2.692-13.584 1.317-22.534 4.056-9.042.819-17.043-5.158-20.78-5.532-3.457-13.41-3.26-20.013 3.158-7.034 6.84-13.091 1.885-20.698 8.96-8.245 7.657-2.46 18.133 5.214 20.86zM58.685 45.272c-3.66-2.563-5.32-6.882-4.798-11.347 1.557-13.275 19.43-20.648 27.165-10.972 9.787 12.232-9.434 31.375-22.367 22.32z" fill="#FAC663" fill-opacity=".15"/><path d="M54.202 64.123c2.938-13.038 21.45-18.515 28.13-8.036 8.046 12.622-11.11 29.346-23.568 20.623-3.998-2.8-5.679-7.63-4.562-12.587z" fill="#FAC663" fill-opacity=".15"/></svg>