<svg width="16" height="17" fill="none" xmlns="http://www.w3.org/2000/svg"><path d="M2.509 16.512a12.372 12.372 0 01-1.593-4.131 12.915 12.915 0 01-.081-4.32 12.42 12.42 0 011.377-4.077A12.807 12.807 0 015.074.501l1.647.999c.288.198.414.441.378.729-.036.27-.135.495-.297.675-.432.54-.819 1.215-1.161 2.025a9.773 9.773 0 00-.648 2.592c-.108.936-.072 1.908.108 2.916s.558 1.998 1.134 2.97c.252.414.324.783.216 1.107-.108.324-.342.558-.702.702l-3.24 1.296zm8.397 0a12.372 12.372 0 01-1.593-4.131 12.915 12.915 0 01-.081-4.32 12.42 12.42 0 011.377-4.077A12.807 12.807 0 0113.471.501l1.647.999c.288.198.414.441.378.729-.036.27-.135.495-.297.675-.432.54-.819 1.215-1.161 2.025a9.773 9.773 0 00-.648 2.592c-.108.936-.072 1.908.108 2.916s.558 1.998 1.134 2.97c.252.414.324.783.216 1.107-.108.324-.342.558-.702.702l-3.24 1.296z" fill="#FAC663"/></svg>